<?xml version="1.0" encoding="UTF-8"?> <svg xmlns="http://www.w3.org/2000/svg" viewBox="0 0 650 230"> <defs> <style>.cls-1{fill:#fff;}</style> </defs> <g id="main-logos"> <path class="cls-1" d="M36.66,98.69h7.43v26H60.17v6H36.66Z"></path> <path class="cls-1" d="M76.43,129.16a16,16,0,0,1-6.28-5.93,17.07,17.07,0,0,1,0-17,16,16,0,0,1,6.28-5.93,19.89,19.89,0,0,1,18,0,16.36,16.36,0,0,1,0,28.87,19.89,19.89,0,0,1-18,0Zm14.14-5.48a9.4,9.4,0,0,0,3.6-3.64,11.52,11.52,0,0,0,0-10.63,9.4,9.4,0,0,0-3.6-3.64,10.72,10.72,0,0,0-10.27,0,9.31,9.31,0,0,0-3.59,3.64,11.44,11.44,0,0,0,0,10.63,9.31,9.31,0,0,0,3.59,3.64,10.72,10.72,0,0,0,10.27,0Z"></path> <path class="cls-1" d="M144.15,98.69v32.07h-6.1l-16-19.47v19.47h-7.33V98.69h6.14l15.95,19.47V98.69Z"></path> <path class="cls-1" d="M179.66,114.22h6.78v13a19.29,19.29,0,0,1-6.05,3,23.52,23.52,0,0,1-6.92,1.05,18.76,18.76,0,0,1-9-2.13,15.81,15.81,0,0,1-6.25-5.91,17.22,17.22,0,0,1,0-17.09,15.75,15.75,0,0,1,6.3-5.91,19.12,19.12,0,0,1,9.07-2.13,19.78,19.78,0,0,1,7.65,1.42,15.07,15.07,0,0,1,5.78,4.12l-4.77,4.4a11,11,0,0,0-8.29-3.62,11.4,11.4,0,0,0-5.46,1.28,9.36,9.36,0,0,0-3.71,3.62,10.74,10.74,0,0,0-1.33,5.37,10.62,10.62,0,0,0,1.33,5.31,9.43,9.43,0,0,0,3.69,3.64,11,11,0,0,0,5.39,1.31,12.11,12.11,0,0,0,5.77-1.37Z"></path> <path class="cls-1" d="M224.29,124.81v5.95H199.45V98.69h24.24v6H206.83v7h14.89v5.77H206.83v7.43Z"></path> <path class="cls-1" d="M268,98.69l-13.89,32.07h-7.33L232.92,98.69h8l9.76,22.91,9.9-22.91Z"></path> <path class="cls-1" d="M277.69,98.69h7.43v32.07h-7.43Z"></path> <path class="cls-1" d="M305.37,104.73H295.11v-6h27.95v6H312.8v26h-7.43Z"></path> <path class="cls-1" d="M350.84,119.4v11.36h-7.42V119.31L331,98.69h7.88l8.57,14.25L356,98.69h7.29Z"></path> <path class="cls-1" d="M414.43,100.11a11,11,0,0,1,4.83,4,12.06,12.06,0,0,1,0,12.35,10.76,10.76,0,0,1-4.83,4,18.14,18.14,0,0,1-7.41,1.4h-6.46v8.84h-7.42V98.69H407A17.81,17.81,0,0,1,414.43,100.11Zm-2.73,14.32a5.76,5.76,0,0,0,0-8.25,7.82,7.82,0,0,0-5.09-1.45h-6.05v11.14h6.05A7.82,7.82,0,0,0,411.7,114.43Z"></path> <path class="cls-1" d="M432.18,98.69h7.43v26h16.08v6H432.18Z"></path> <path class="cls-1" d="M490.61,124.81v5.95H465.77V98.69H490v6H473.15v7H488v5.77H473.15v7.43Z"></path> <path class="cls-1" d="M502.93,98.69H517.5a20.46,20.46,0,0,1,9.24,2,15,15,0,0,1,6.23,5.61,17.13,17.13,0,0,1,0,16.87,15,15,0,0,1-6.23,5.61,20.46,20.46,0,0,1-9.24,2H502.93Zm14.21,26a10.75,10.75,0,0,0,7.67-2.68,10.63,10.63,0,0,0,0-14.53,10.75,10.75,0,0,0-7.67-2.68h-6.78v19.89Z"></path> <path class="cls-1" d="M568.71,114.22h6.78v13a19.34,19.34,0,0,1-6,3,23.64,23.64,0,0,1-6.93,1.05,18.78,18.78,0,0,1-9-2.13,15.88,15.88,0,0,1-6.25-5.91,17.22,17.22,0,0,1,0-17.09,15.75,15.75,0,0,1,6.3-5.91,19.12,19.12,0,0,1,9.07-2.13,19.87,19.87,0,0,1,7.66,1.42,15.12,15.12,0,0,1,5.77,4.12l-4.77,4.4a11,11,0,0,0-8.29-3.62,11.34,11.34,0,0,0-5.45,1.28,9.32,9.32,0,0,0-3.72,3.62,10.74,10.74,0,0,0-1.32,5.37,10.62,10.62,0,0,0,1.32,5.31,9.43,9.43,0,0,0,3.69,3.64,11,11,0,0,0,5.39,1.31,12.08,12.08,0,0,0,5.77-1.37Z"></path> <path class="cls-1" d="M613.34,124.81v5.95H588.5V98.69h24.24v6H595.88v7h14.89v5.77H595.88v7.43Z"></path> <path class="cls-1" d="M362,71.45c0-.46.39-.82,1.18-1.09q.69-.28,4.89-1.43t7.36-1.82c.19,0,.51-.25.93-.75a12.11,12.11,0,0,0,1.24-1.72l4.74-7.31q5.52-8.38,10.56-17.18,1.88-3.55,3.46-3.55a2.24,2.24,0,0,1,1.28.49.85.85,0,0,1,.2,1A40,40,0,0,1,396,41.93q-2.26,4.64-5.08,11.7T387,64.44a1.8,1.8,0,0,1-.1.39c-.07.2-.05.34.05.4a.75.75,0,0,0,.44.1L391,65c1.44-.13,2.43-.2,3-.2a8.79,8.79,0,0,1,2.32.25c.56.17.84.41.84.74s-.32.54-.94.64-2.36.25-5.18.45c-1.72.13-3.33.29-4.84.49a18.54,18.54,0,0,0-1.24,3.95q-.93,3.66-1.82,7.9-4.84,22-5.14,25.87a12.12,12.12,0,0,0-.1,1.58c0,.65.17,1,.5,1.18s.49.25.49.35-.16.28-.49.54a3,3,0,0,1-2.17.69,2.2,2.2,0,0,1-1.58-.49,2.17,2.17,0,0,1-.15-1.24,21.24,21.24,0,0,1,.34-2.52q1-6.12,3.21-15.5t4.3-15.59a63.49,63.49,0,0,0,1.77-6.22c0-.14-.23-.2-.69-.2a5.77,5.77,0,0,0-1.18.1,16.78,16.78,0,0,0-2.27.39,7.15,7.15,0,0,0-1.14,1.29c-.49.65-1,1.44-1.63,2.36L370.74,81a6,6,0,0,0-1.39,2.56,1.27,1.27,0,0,1-.19.64,1.58,1.58,0,0,1-.5.55,3.76,3.76,0,0,1-2.17.49,5.56,5.56,0,0,1-2.07-.39,1,1,0,0,1-.59-.89,1.22,1.22,0,0,1,.69-1.09,7.32,7.32,0,0,0,2.07-2.07q1.38-1.78,5.33-7.7,1-1.38,1.68-2.52c.46-.76.66-1.17.59-1.23s-1.2.11-3.21.74a16.7,16.7,0,0,0-3.7,1.43,4.49,4.49,0,0,1-3.06.89,3.72,3.72,0,0,1-1.48-.2C362.21,72,362,71.78,362,71.45Zm19.15-5.23c0,.13.27.13.79,0l1.88-.4,1.08-.1,1.78-5.13q1.19-3.56,1.63-4.89c.3-.89.31-1.1.05-.64l-3.85,5.83Q381.1,66,381.1,66.22Z"></path> <path class="cls-1" d="M484.52,64.89a6.15,6.15,0,0,0-2-.4c-.46,0-1.32,0-2.6,0a75.9,75.9,0,0,0-20.34,2.83c-2.49.7-4,1.06-4.38,1.25-.71.23-1.08.6-1.11,1.09a1,1,0,0,0,.63.89,2.66,2.66,0,0,0,1.28.3,3.47,3.47,0,0,0,2.74-.77,13.71,13.71,0,0,1,3.34-1.32,51.56,51.56,0,0,1,17.71-2.26q3.72-.08,4.56-.18c.55-.07.84-.28.86-.63S485,65.1,484.52,64.89Z"></path> <path class="cls-1" d="M393.05,73.82l1.87-7.41q1.38-5.41,3.51-11.6a73.74,73.74,0,0,1,3.6-9,15.3,15.3,0,0,1,2.17-3.26,2.88,2.88,0,0,1,2.08-.89,4.71,4.71,0,0,1,2.07.4,1.29,1.29,0,0,0,.35.2.37.37,0,0,1,.24.39,16.77,16.77,0,0,1-1.43,3.8q-1.42,3.21-4.29,9.13L401.64,59q-3.06,6.62-3.95,9.23a10.67,10.67,0,0,0-.69,4.49c0,1.12-.07,1.72-.2,1.78-.26.26-.4,1.15-.4,2.67s-.26,2.46-.59,2.66a2.57,2.57,0,0,1-1.48.3,2.92,2.92,0,0,1-1.78-.4,1.19,1.19,0,0,1-.59-1.18c0-.13.13-.86.4-2.17Zm7.45-18a44,44,0,0,0-1.33,4.2c0,.33.21,0,.64-1s.87-2.25,1.33-3.7q1.38-4,.7-2.86A29.22,29.22,0,0,0,400.5,55.8Z"></path> <path class="cls-1" d="M403.27,69a5.5,5.5,0,0,1,3.9-1.43,3.41,3.41,0,0,1,2.07.59,2.6,2.6,0,0,1,1,1.38,1.43,1.43,0,0,1-.1,1.19,4.11,4.11,0,0,1-1.68,1.68,6,6,0,0,1-2.67.49A9.05,9.05,0,0,0,404,73a.53.53,0,0,0-.4.59c.07.27.43.5,1.09.69a7.39,7.39,0,0,0,2.17.3,7.51,7.51,0,0,0,3.36-.69A16.16,16.16,0,0,0,413.78,72a6.75,6.75,0,0,1,1.58-1c.26,0,.28.21.05.64A6.43,6.43,0,0,1,414.27,73a8.86,8.86,0,0,1-1.77,1.38,14.46,14.46,0,0,1-6.62,1.78,5.15,5.15,0,0,1-3-.79,2.8,2.8,0,0,1-1.14-2.47A5.07,5.07,0,0,1,403.27,69Zm2.51,1.68a.83.83,0,0,0,.4-.35l.1-.39c0-.26-.1-.4-.3-.4s-.46.17-.79.5l-.69.79h.69A1.26,1.26,0,0,0,405.78,70.71Z"></path> <path class="cls-1" d="M424.05,67.3q0,.11-.3.3a1.34,1.34,0,0,1-1,.39c-.39,0-1,.37-1.77,1.09-1.06,1-1.68,1.6-1.88,1.83a1.37,1.37,0,0,0-.3.93l.79,1.58c.07.14.18.37.35.7a1.23,1.23,0,0,1,.2.64A.7.7,0,0,1,420,75a4.69,4.69,0,0,1-1.33.6,2.32,2.32,0,0,1-1.44.1l-.69-1-.88,1.38a3.33,3.33,0,0,1-.55.79,1.58,1.58,0,0,1-.74.1c-.52,0-.79-.1-.79-.3q-.3-.39,2-3.06l.29-.39a43.28,43.28,0,0,1-1.28-4.35c-.07-.39.13-.69.59-.89a4.12,4.12,0,0,1,1.58-.29,2.08,2.08,0,0,1,1,.2c.66.26.72.59.2,1a.85.85,0,0,0-.25.4.92.92,0,0,0,.15.59l.19.79,2.08-2.27c1-1.12,1.87-1.68,2.66-1.68a2.46,2.46,0,0,1,1.09.3C424,67.14,424.05,67.24,424.05,67.3Z"></path> <path class="cls-1" d="M463,38c5.87-.41,13.34-.8,19.38-.89a39.68,39.68,0,0,1,10.66,1c2.79.78,4.65,1.74,5.9,4a2.64,2.64,0,0,1,.26,2.91c-1.18,3.16-3.73,5-7,7.39-2,1.45-5.26,3.59-8.23,5.47s-8.26,5.66-11.36,7.71c-8.13,5.38-15.7,9.6-23.92,14.53-1.65,1-3.62,2.13-5.51,3.15-3.88,2.09-8.12,4.42-11.89,6.81-.12.08-.27.08-.19.16s-.36.05.17.14a7.66,7.66,0,0,0,2.2-.34c8.36-1.5,18.62-3.5,27.14-4.54a164.61,164.61,0,0,1,26-1.46,59.68,59.68,0,0,1,8.13.76c2.21.33,2,.55,2.4,1.65.22.59-.16.68-.94.68a5.79,5.79,0,0,1-2.41-.39A48.1,48.1,0,0,0,485,85.9c-3.17-.06-8.65-.29-12.32-.12-5.55.26-11.78,1-17.16,1.76s-12.47,2.12-17,3-6.78,1.29-10,3.09c-1.06.58-.56.49-1.26.66a3,3,0,0,1-1.42-.07c-.15,0-.52-.07-.57-.16-.19-.35-1.52,0-1.32-.68s-2.13.47-.44-1.11-2.85,1.16,2.92-2.31c12.29-7.39,31.73-16.79,46.19-26.76,2.59-1.79,9.7-7.27,12.76-9.36a63,63,0,0,0,8.72-6.66,6.91,6.91,0,0,0,2.07-3.28c.35-1.12.31-1.33-.34-2a4.79,4.79,0,0,0-3.39-1.94c-5.63-1.08-12-.23-18.31.36-4.06.37-10.33.95-14.44,1.51a44.32,44.32,0,0,0-11.33,2.67,7.11,7.11,0,0,0-2,1.21c-.61.47-.35.51-.36,1s.11.82-.4,1.05a1.75,1.75,0,0,1-1.53-.13c-.48-.26-1.4-.73-1.62-1.22-.4-.92-1.63-1.45-.56-2.77s1.78-1.81,4.25-2.68C451.05,39.13,457.15,38.37,463,38Z"></path> <path class="cls-1" d="M492.46,75.5l.6-2.87,1.38-6.22a83.84,83.84,0,0,1,2.66-9.47,83.22,83.22,0,0,1,3.76-9.58c1.44-3.22,2.92-5.27,4.44-6.12a5,5,0,0,1,2.47-.59,3.08,3.08,0,0,1,2.07.59,4.81,4.81,0,0,0,.39.34.81.81,0,0,1,.3.65,18.64,18.64,0,0,1-1.43,5.62,54.09,54.09,0,0,1-3.41,7.41q-1.57,3.06-2.76,4.89a45.76,45.76,0,0,1-3.36,4.39A16,16,0,0,0,497.75,67a10.19,10.19,0,0,0-.65,2.76,28.56,28.56,0,0,0-.29,3.56c0,.26,0,.39.1.39s.69-.53,1.48-1.58a29.45,29.45,0,0,1,2.71-3.26,2.68,2.68,0,0,1,1.73-.89,2.85,2.85,0,0,1,2.76,2.27q1.59,5.24,2.37,5.24c.46,0,1.52-1,3.16-2.87,1.12-1.25,1.75-1.81,1.88-1.67.33.33.21,1-.35,1.92a13,13,0,0,1-2.22,2.77A4.5,4.5,0,0,1,508,77.08q-3.65.58-5.82-5.63c-.2-.66-.84-.44-1.93.64a11.93,11.93,0,0,0-2.41,3.31,8.24,8.24,0,0,0-.6,2.22,3.93,3.93,0,0,1-.39,1.53,3.57,3.57,0,0,1-2.08.49,4.43,4.43,0,0,1-2-.39c-.59-.33-.89-.56-.89-.69Zm11.06-25c-1.12,2.34-2.25,5-3.41,7.85a24,24,0,0,0-1.72,5.23c0,.33.26.1.79-.69a36.48,36.48,0,0,0,2-3.55q1.19-2.48,2.62-6.42A21.86,21.86,0,0,0,505.2,48C505.2,47.3,504.64,48.13,503.52,50.47Z"></path> <path class="cls-1" d="M511.72,72.93a4.17,4.17,0,0,1,.39-1.68,4.51,4.51,0,0,1,.89-1.38,6.11,6.11,0,0,1,5.43-1.78,6.33,6.33,0,0,1,2.22.74,1.62,1.62,0,0,1,.64,1.43,7.56,7.56,0,0,1-.2,1.39,5.45,5.45,0,0,0-.34,1.28.62.62,0,0,0,.34.69,1.52,1.52,0,0,0,1.58-.1c.6-.33,1.42-.85,2.47-1.58,1.19-.92,1.88-1.28,2.08-1.08a.4.4,0,0,1,.09.29,4.69,4.69,0,0,1-1.08,1.58,7.42,7.42,0,0,1-5,2.47,3.74,3.74,0,0,1-2.76-1.08l-.79-.7-.89.7a4.35,4.35,0,0,1-2.67.88,2.57,2.57,0,0,1-1.58-.39A1.83,1.83,0,0,1,511.72,72.93Zm3.06-.49.09.1q.3,0,1.29-1c.65-.66.79-1,.39-1a1.62,1.62,0,0,0-1,.59A4.7,4.7,0,0,0,514.78,72.44Z"></path> <path class="cls-1" d="M538.07,66.41a.87.87,0,0,1-.39.7,2.37,2.37,0,0,1-1.09.39A4.37,4.37,0,0,0,534.82,69q-1.1,1.34-2.67,3.7a24.05,24.05,0,0,1-1.68,2.47,3.07,3.07,0,0,1-2.56,1.28,3.22,3.22,0,0,1-.89-.09,2.91,2.91,0,0,1-1.14-.5,1.77,1.77,0,0,1-.44-1.18l-.1-.59a5,5,0,0,1,.2-1.34c.13-.49.23-.87.29-1.13a10.74,10.74,0,0,1,.94-3.31A3.43,3.43,0,0,1,529,67.4a5,5,0,0,1,1.09-.1q1.47,0,1.68.69a1.63,1.63,0,0,1-.6,1.09,7.2,7.2,0,0,0-1.33,2.67c-.36,1.18-.48,1.81-.34,1.87q4-5.24,5.47-6.81c1-1,1.83-1.45,2.62-1.19A.9.9,0,0,1,538.07,66.41Z"></path> <path class="cls-1" d="M535.61,74a3.93,3.93,0,0,1,.59-2.08,8,8,0,0,1,1.72-2.37,5.69,5.69,0,0,1,2.72-1l2-.2a1.2,1.2,0,0,1,1.09,1.87l-.39,1.68a11.12,11.12,0,0,1-2,3.71,3.91,3.91,0,0,1-3,1.23A2.47,2.47,0,0,1,536.2,76,3.43,3.43,0,0,1,535.61,74Zm5-2.27c0-.27-.07-.4-.2-.4-.33,0-.82.53-1.48,1.58a3.59,3.59,0,0,0-.59,1.78c0,.39.2.56.59.49a2.12,2.12,0,0,0,.79-1A7,7,0,0,0,540.64,71.75Z"></path> <path class="cls-1" d="M555.6,71.1a3,3,0,0,1-.05-1.62c.06-.46-.35-.37-1.24.29a27.19,27.19,0,0,0-2.86,2.52,8,8,0,0,0-1.63,1.92c-.2,1.12-.79,1.68-1.78,1.68a3,3,0,0,1-1.67-.59,1.67,1.67,0,0,1-.5-1.38,8.6,8.6,0,0,1,.64-3,13.31,13.31,0,0,0,.65-1.88c-.14-.39.14-.71.84-.94a7.62,7.62,0,0,1,2.41-.34,5,5,0,0,1,1.88.29.9.9,0,0,1,.59.79c0,.4-.26.69-.79.89a.92.92,0,0,1-.44.1c-.17,0-.32.16-.45.49l-.49,1.39,2.17-2.18q2.37-2.37,3.36-2.37a1.91,1.91,0,0,1,1.53,1,3.58,3.58,0,0,1,.15,1.19,5.3,5.3,0,0,0,.15,1.63c.09.23.34.34.74.34l1.48-.2c.72-.06,1.26-.1,1.63-.1s.54.1.54.3-.45.56-1.33.89a7.77,7.77,0,0,1-2.72.49,8.3,8.3,0,0,1-1.48-.19A2,2,0,0,1,555.6,71.1Z"></path> <path class="cls-1" d="M560.48,74a3.94,3.94,0,0,1,.6-2.08,7.78,7.78,0,0,1,1.72-2.37,5.69,5.69,0,0,1,2.72-1l2-.2a1.2,1.2,0,0,1,1.09,1.87l-.39,1.68a11.12,11.12,0,0,1-2,3.71,3.91,3.91,0,0,1-3,1.23,2.47,2.47,0,0,1-2.07-.89A3.44,3.44,0,0,1,560.48,74Zm5-2.27c0-.27-.07-.4-.2-.4-.33,0-.82.53-1.48,1.58a3.59,3.59,0,0,0-.59,1.78c0,.39.2.56.59.49a2.12,2.12,0,0,0,.79-1A7,7,0,0,0,565.52,71.75Z"></path> <path class="cls-1" d="M574.9,71.55a22.66,22.66,0,0,0,2-1.58,6.06,6.06,0,0,1,3.8-1.58q2.67,0,3.16,2.86a6.09,6.09,0,0,0,.94,2.42,1.6,1.6,0,0,0,1.63.45,7.68,7.68,0,0,0,2.57-2c.46-.46.92-.89,1.38-1.28s.79-.5,1-.3.34.69.05,1.28a13.19,13.19,0,0,1-2.92,3A5,5,0,0,1,585.36,76a5.59,5.59,0,0,1-3.16-1.08,6.92,6.92,0,0,1-1.28-1.63,20.24,20.24,0,0,1-1.09-2c-.13-.33-.29-.49-.49-.49-.46,0-1.25.53-2.37,1.58-1.32,1.12-2,1.91-2.12,2.37s-.22.72-.35.79A2.48,2.48,0,0,1,573,76a4.33,4.33,0,0,1-2.47-.89,1.37,1.37,0,0,1-.29-1,9.69,9.69,0,0,1,.59-3,13.57,13.57,0,0,0,.59-1.92c.2-.53.86-.79,2-.79a5.58,5.58,0,0,1,2.37.39.54.54,0,0,1,.39.6,1.29,1.29,0,0,1-.59,1A1.17,1.17,0,0,0,574.9,71.55Z"></path> <path class="cls-1" d="M587.68,82.36a.76.76,0,0,1-.15-.54,45,45,0,0,1,1.24-5.93q1.23-5,3.6-14,1.88-7.2,2.77-9.77a11.34,11.34,0,0,1,1.67-3.46,2.29,2.29,0,0,1,1.68-.69,2.14,2.14,0,0,1,1.58.59l.69.6-1.18,4.64c-.59,2.37-.91,3.77-.94,4.19a1,1,0,0,0,.35.94c.26.2.39.36.39.49s-.2.3-.59.7a1.65,1.65,0,0,1-1,.54,10.47,10.47,0,0,1-1.68,0l-1.87-.1-.5,2.27a38.31,38.31,0,0,0-1.08,6.91c0,.33.06.5.2.5a4.47,4.47,0,0,0,1.48-.89,7.3,7.3,0,0,1,1.63-1,5.2,5.2,0,0,1,3.55.25c.62.29.94.64.94,1,0,.2-.4.46-1.19.79a5.26,5.26,0,0,1-1.87.5c-.6,0-1.25.46-2,1.38s-1.18,1.51-1.18,1.78,1.2-.15,3.6-.84,4.86-1.43,7.36-2.22a2,2,0,0,1,.69-.1c.39,0,.59.16.59.49a1.63,1.63,0,0,1-.44.94,1.66,1.66,0,0,1-.94.64q-3.25.79-6.32,1.68a10.88,10.88,0,0,0-3.65,1.48,3.78,3.78,0,0,1-2.67,1.28.85.85,0,0,0-.69.25,3.89,3.89,0,0,0-.3,1.53,6.7,6.7,0,0,0-.1,1.19,1.52,1.52,0,0,0,.3,1.08,4.87,4.87,0,0,1,.15.49.42.42,0,0,1-.15.4,3.14,3.14,0,0,1-2,.39,4.17,4.17,0,0,1-1.58-.19A.61.61,0,0,1,587.68,82.36Z"></path> <path class="cls-1" d="M604,74a4,4,0,0,1,.59-2.08,8,8,0,0,1,1.73-2.37,5.69,5.69,0,0,1,2.72-1l2-.2a1.2,1.2,0,0,1,1.09,1.87l-.4,1.68a11.12,11.12,0,0,1-2,3.71,3.91,3.91,0,0,1-3,1.23,2.47,2.47,0,0,1-2.08-.89A3.51,3.51,0,0,1,604,74Zm5-2.27c0-.27-.07-.4-.2-.4-.33,0-.82.53-1.48,1.58a3.49,3.49,0,0,0-.59,1.78c0,.39.19.56.59.49a2.18,2.18,0,0,0,.79-1A7,7,0,0,0,609.06,71.75Z"></path> <path class="cls-1" d="M636.07,53.34a.88.88,0,0,1-.44.67c-.27.18-.7.11-1.1.33a5.42,5.42,0,0,0-1.86,1.44c-.77.85-10.52,15.37-11.57,17a24.05,24.05,0,0,1-1.68,2.47,3.07,3.07,0,0,1-2.56,1.28,3.22,3.22,0,0,1-.89-.09,2.91,2.91,0,0,1-1.14-.5,1.77,1.77,0,0,1-.44-1.18l-.1-.59a5.37,5.37,0,0,1,.2-1.34c.13-.49.23-.87.29-1.13a11,11,0,0,1,.94-3.31,3.43,3.43,0,0,1,2.22-.94,5,5,0,0,1,1.09-.1c1,0,1.54.23,1.68.69a1.63,1.63,0,0,1-.6,1.09,7.2,7.2,0,0,0-1.33,2.67c-.36,1.18-.48,1.81-.34,1.87,2.69-3.49,13.49-19.05,14.5-20.05s1.9-1.35,2.67-1A.92.92,0,0,1,636.07,53.34Z"></path> <polygon class="cls-1" points="640.54 158.51 9.46 158.51 9.46 71.48 351.38 71.48 351.38 74.69 12.66 74.69 12.66 155.31 637.34 155.31 637.34 71.48 640.54 71.48 640.54 158.51"></polygon> </g> </svg> 