<?xml version="1.0" encoding="UTF-8"?> <!-- Generator: Adobe Illustrator 25.4.0, SVG Export Plug-In . SVG Version: 6.00 Build 0) --> <svg xmlns="http://www.w3.org/2000/svg" xmlns:xlink="http://www.w3.org/1999/xlink" id="Layer_1" x="0px" y="0px" viewBox="0 0 415.3 95.1" style="enable-background:new 0 0 415.3 95.1;" xml:space="preserve"> <style type="text/css"> .st0{fill:#FFFFFF;} .st1{fill:#7E7E7E;} </style> <path class="st0" d="M10.5,1.5v63.4l-4.7-4.7l-4.9-4.9l-0.1-0.1C0.3,54.7,0,54,0,53.2V1.5H10.5z"></path> <path class="st0" d="M49.9,64.8v9.8H21.4c-0.7,0-1.3-0.3-1.8-0.7c0,0,0-0.1-0.1-0.1l-4.4-4.4l0,0l-4.6-4.6 C10.5,64.8,49.9,64.8,49.9,64.8z"></path> <path class="st0" d="M78,76.1c13.9,0,24.6-11.5,24.6-27.3S92.3,21.3,78,21.3S53.3,33,53.3,48.8S64,76.1,78,76.1z M78,67.7 c-8.6,0-14.4-6.1-14.4-18.7S69.4,29.8,78,29.8s14.3,6.4,14.3,19.1S86.5,67.7,78,67.7z"></path> <path class="st0" d="M123.3,74.7V52.3c0-7.3,0.2-22.4,13.8-22.4c6.7,0,11,3.8,11,13.1v31.7h9.8v-34c0-11.5-5.2-19.4-18-19.4 c-10.9,0-15.9,7.6-16.9,10.1v-8.7h-9.5v51.9L123.3,74.7L123.3,74.7z"></path> <path class="st0" d="M205.2,95.1c9,0,16.5-4.8,16.5-14.5c0-8.7-6.6-14.5-16.7-14.5h-22.5c-3.6,0-4.6-1.7-4.6-3.3 c0-1.9,1.8-3.8,4.6-4.9c2.9,1.6,6.3,2,9.8,2c11.6,0,19.7-7.5,20.6-19.2l0.2-2.5c0.4-6,2.1-7,6.5-7h4.3V23h-5.3 c-5.3,0-7.6,3.2-8.6,7.7c-2.4-4.1-8.2-9.2-17.8-9.2c-12.1,0-20.9,8.4-20.9,19.3c0,6.2,2.7,10.9,5.8,13.6c-3.6,2.3-7.7,5.9-7.7,11 c0,4.2,1.7,6.7,4.6,8.5c-3,1.9-6.7,5.7-6.7,10.9c0,6.1,3.7,10.5,13.8,10.5L205.2,95.1L205.2,95.1z M192.4,52 c-6.8,0-11.2-4.5-11.2-11.4s4.4-11.5,11.2-11.5s11.2,4.7,11.2,11.5S199.2,52,192.4,52z M183.8,86.7c-5,0-7.8-1.2-7.8-5.4 c0-3.2,2.1-5.5,3.8-6.6H204c4.2,0,7.8,1.1,7.8,6s-3.7,6.1-7.8,6.1L183.8,86.7L183.8,86.7z"></path> <path class="st0" d="M250.8,76.1c10.8,0,19-5,22.8-15l-9-3.2c-1.5,3.7-5.1,9.9-13.5,9.9c-7.1,0-14-4.2-14.4-16.6h36.5 c1.9-16.9-7.3-29.9-22.8-29.9c-13.5,0-23.5,10.7-23.5,27.6S236.4,76.1,250.8,76.1L250.8,76.1z M236.9,43.4c0.8-9,6.8-14.2,13.5-14.2 c6.7,0,12.8,4.9,12.9,14.2H236.9z"></path> <path class="st1" d="M318.5,74.7l23.8-73.2h-11.5l-15.2,48.4l-4.9,15.6c-0.8-2.7-1.6-5.3-4.8-15.7L291,1.5h-11.6L303,74.7H318.5 L318.5,74.7z"></path> <path class="st1" d="M383.1,76.1c18,0,28.6-10.2,32.2-22.3l-10.2-4c-2.7,8.8-8.2,16.7-22,16.7c-14.9,0-24.7-11.9-24.7-29.3 s9.9-27.8,24.7-27.8s19.5,9.4,21.6,15.9l10.5-3.8C412.2,11.4,401.8,0,383.1,0c-21.3,0-35.9,16.1-35.9,37.4S360.2,76.1,383.1,76.1 L383.1,76.1z"></path> </svg> 